<?xml version="1.0" standalone="no"?>
<!DOCTYPE svg PUBLIC "-//W3C//DTD SVG 20010904//EN"
 "http://www.w3.org/TR/2001/REC-SVG-20010904/DTD/svg10.dtd">
<svg version="1.0" xmlns="http://www.w3.org/2000/svg"
 width="758.000000pt" height="505.000000pt" viewBox="0 0 758.000000 505.000000"
 preserveAspectRatio="xMidYMid meet">

<g transform="translate(0.000000,505.000000) scale(0.100000,-0.100000)"
fill="#000000" stroke="none">
<path d="M623 4279 c-68 -71 133 -456 433 -831 268 -334 509 -525 1039 -826
88 -50 172 -100 188 -112 35 -28 35 -56 -2 -128 -34 -68 -83 -215 -110 -332
-26 -115 -39 -222 -51 -435 -16 -273 -46 -500 -73 -532 -18 -23 -61 -13 -122
27 -72 48 -115 59 -149 37 -20 -14 -26 -14 -42 -2 -27 21 -67 18 -98 -6 -23
-18 -35 -20 -82 -14 -53 6 -54 6 -72 -25 -32 -60 -55 -81 -108 -105 -69 -31
-86 -63 -88 -166 -1 -65 3 -83 20 -106 l21 -28 2452 -3 2451 -2 20 32 c15 26
20 51 20 111 0 101 -14 126 -95 166 -49 25 -66 40 -87 78 l-26 48 -59 -3 c-47
-3 -64 1 -85 17 -31 24 -66 27 -94 7 -17 -13 -22 -13 -43 1 -34 22 -77 12
-151 -36 -70 -45 -97 -50 -131 -22 -21 16 -23 30 -30 147 -39 631 -43 665 -99
899 -25 106 -46 167 -103 296 -22 50 -9 65 116 135 527 296 828 520 1052 784
343 406 590 851 513 928 -27 27 -253 2 -474 -53 -587 -147 -1165 -532 -1643
-1093 -56 -67 -111 -122 -133 -133 -54 -28 -112 -24 -188 12 -226 108 -463
159 -734 159 -265 0 -483 -49 -750 -170 -59 -27 -121 -23 -169 10 -17 13 -57
52 -87 88 -185 221 -398 428 -606 590 -393 306 -823 505 -1244 577 -139 24
-282 30 -297 14z m677 -190 c142 -35 326 -123 515 -246 259 -170 564 -441 824
-733 179 -202 184 -206 234 -219 51 -12 63 -9 228 58 195 78 453 124 704 125
270 1 451 -36 670 -136 61 -28 129 -53 152 -55 63 -7 129 33 205 126 451 547
939 925 1389 1076 124 41 173 45 189 14 22 -40 -52 -425 -122 -634 -92 -277
-153 -348 -488 -568 -80 -53 -183 -122 -230 -155 -117 -82 -257 -161 -299
-168 -24 -5 -44 -2 -64 10 -40 23 -56 20 -68 -11 -9 -23 -2 -42 47 -142 31
-64 72 -159 91 -211 67 -184 111 -444 98 -584 -9 -99 11 -311 41 -439 16 -66
23 -112 17 -118 -5 -5 -42 -1 -92 12 -152 38 -272 16 -356 -68 -45 -45 -118
-164 -141 -231 l-19 -52 -362 0 c-219 0 -364 4 -368 10 -3 5 -3 20 0 33 6 21
14 25 56 30 75 9 203 96 185 126 -11 18 -26 13 -64 -20 -98 -87 -223 -93 -336
-17 -84 57 -110 68 -156 68 -51 -1 -135 -32 -200 -76 -65 -43 -95 -54 -149
-54 -60 0 -140 39 -180 87 -20 24 -35 34 -45 30 -26 -10 -19 -28 33 -78 49
-47 137 -89 186 -89 18 0 25 -5 25 -20 0 -19 -7 -20 -248 -20 -137 0 -304 3
-370 7 l-122 6 0 30 c0 41 -52 145 -100 200 -87 98 -241 140 -380 102 -104
-28 -130 -30 -130 -10 0 10 9 32 19 49 11 17 26 58 35 91 19 74 52 400 61 595
14 306 58 474 169 635 49 72 62 105 52 131 -5 12 -14 15 -39 9 -96 -20 -115
-18 -190 17 -39 19 -155 91 -257 159 -102 68 -223 149 -270 179 -137 89 -253
191 -294 259 -87 143 -155 338 -205 586 -25 126 -43 282 -35 307 6 21 23 20
154 -13z m547 -2981 c4 -7 13 -31 19 -53 7 -26 16 -39 25 -36 72 20 89 6 89
-74 0 -46 3 -53 25 -63 30 -14 86 -98 78 -118 -4 -12 -65 -14 -364 -14 l-358
0 -11 40 c-21 79 16 151 96 185 22 9 34 21 34 33 0 11 9 30 19 43 l19 24 29
-27 c16 -16 34 -28 40 -28 6 0 26 18 43 40 17 22 38 40 45 40 8 0 23 -14 35
-30 l22 -31 44 41 c47 43 58 47 71 28z m3922 -23 c46 -42 58 -43 73 -10 16 35
35 31 77 -15 20 -22 41 -40 46 -40 5 0 21 12 37 27 22 21 30 24 42 14 8 -7 18
-26 21 -42 5 -21 18 -35 45 -49 61 -31 90 -73 90 -131 0 -96 28 -89 -375 -89
-217 0 -356 4 -360 10 -10 16 33 87 70 116 32 24 35 31 35 78 0 29 5 57 12 64
15 15 50 16 65 1 18 -18 30 -3 36 42 5 38 19 58 39 59 5 0 25 -16 47 -35z"/>
<path d="M2693 1870 c-112 -56 -175 -158 -176 -283 0 -89 23 -147 87 -215 70
-75 123 -97 231 -97 78 0 97 4 141 27 63 33 119 94 151 165 22 47 24 65 21
131 -5 91 -31 153 -90 211 -61 62 -118 85 -218 89 -79 3 -90 1 -147 -28z m296
-59 c45 -32 63 -66 64 -120 1 -63 -21 -97 -85 -129 -41 -21 -51 -22 -89 -12
-82 22 -127 99 -107 180 11 43 56 88 100 102 33 10 89 0 117 -21z"/>
<path d="M4601 1882 c-60 -23 -136 -94 -169 -156 -22 -43 -26 -64 -27 -136 0
-75 4 -92 30 -144 120 -238 461 -232 571 9 37 79 41 140 15 223 -26 86 -89
158 -171 196 -67 31 -178 35 -249 8z m71 -52 c74 -21 123 -111 99 -183 -52
-155 -281 -120 -281 43 0 60 29 106 83 130 49 23 51 23 99 10z"/>
<path d="M3662 1388 c-20 -20 -14 -53 18 -97 56 -77 125 -76 180 4 58 84 40
105 -90 105 -61 0 -100 -4 -108 -12z"/>
</g>
</svg>
