<?xml version="1.0" standalone="no"?>
<!DOCTYPE svg PUBLIC "-//W3C//DTD SVG 20010904//EN"
 "http://www.w3.org/TR/2001/REC-SVG-20010904/DTD/svg10.dtd">
<svg version="1.0" xmlns="http://www.w3.org/2000/svg"
 width="880.000000pt" height="979.000000pt" viewBox="0 0 880.000000 979.000000"
 preserveAspectRatio="xMidYMid meet">

<g transform="translate(0.000000,979.000000) scale(0.100000,-0.100000)"
fill="#000000" stroke="none">
<path d="M6903 9370 c-290 -103 -801 -485 -1184 -885 -190 -198 -396 -461
-574 -729 -86 -132 -230 -367 -238 -390 -2 -6 -26 -1 -58 12 -216 87 -507 142
-754 142 -279 0 -555 -59 -919 -197 l-119 -45 -161 51 c-572 181 -1047 288
-1486 333 -188 19 -608 16 -750 -6 -123 -19 -212 -45 -241 -72 -40 -36 -15
-108 68 -195 115 -120 295 -231 558 -343 444 -188 862 -285 1348 -312 70 -4
127 -9 127 -11 0 -3 -8 -17 -19 -31 -32 -45 -103 -193 -127 -266 -26 -75 -68
-267 -84 -377 -7 -45 -23 -97 -48 -147 -49 -99 -76 -167 -104 -267 -30 -108
-32 -294 -4 -375 46 -134 138 -276 267 -414 71 -77 226 -210 307 -264 28 -19
52 -35 52 -36 0 -1 -18 -91 -40 -201 -22 -110 -53 -303 -70 -430 -38 -282 -48
-334 -94 -508 -201 -753 -160 -1136 172 -1588 13 -16 3 -31 -97 -144 -177
-202 -262 -347 -265 -450 -1 -43 3 -58 22 -78 60 -64 258 -64 457 0 186 59
471 224 674 390 46 37 93 76 106 86 14 12 51 22 101 28 43 5 129 21 189 35
206 47 222 48 367 30 73 -9 183 -28 243 -42 182 -42 302 -62 450 -74 77 -6
141 -15 143 -20 6 -17 168 -240 237 -327 239 -301 456 -448 579 -391 14 6 36
32 48 57 21 42 23 60 22 186 -1 152 -23 284 -85 508 -45 161 -45 157 -9 197
161 180 237 339 278 585 l19 110 234 158 c514 347 895 587 1252 787 131 74
165 96 155 106 -42 39 -412 259 -613 364 -66 35 -128 69 -138 75 -15 10 9 27
175 120 321 180 848 496 888 532 7 7 -41 44 -160 124 -122 81 -449 247 -735
373 -110 49 -201 89 -203 91 -5 4 261 236 428 373 269 220 486 376 763 548
l148 92 -203 149 c-316 233 -472 343 -758 534 -287 191 -688 449 -700 449 -3
0 -157 -161 -341 -357 -184 -197 -400 -428 -480 -513 -80 -85 -164 -175 -186
-199 l-40 -45 -12 67 c-18 102 -56 227 -109 350 -26 62 -47 115 -47 118 0 3
59 69 131 145 561 595 959 1131 1159 1559 130 278 220 571 232 751 7 112 -2
134 -55 133 -20 0 -60 -9 -89 -19z m-598 -542 c9 -41 34 -250 45 -374 12 -138
0 -354 -26 -443 -21 -74 -82 -192 -150 -293 -91 -133 -233 -300 -539 -633
-215 -233 -285 -320 -298 -372 -7 -29 2 -29 63 2 l50 25 15 -37 c55 -131 109
-317 137 -473 25 -145 16 -454 -26 -810 -43 -376 -53 -546 -37 -650 17 -106
77 -279 161 -463 l73 -159 -97 -90 c-97 -90 -146 -156 -146 -196 0 -47 107
-69 255 -53 50 5 94 6 98 2 21 -20 153 -429 164 -508 5 -41 5 -41 -88 -135
-52 -51 -115 -110 -141 -131 -59 -46 -66 -87 -20 -111 42 -22 136 -36 239 -36
l93 0 2 -72 c13 -430 -55 -697 -221 -866 -124 -126 -288 -215 -460 -248 -216
-42 -501 -26 -1036 57 -219 34 -323 35 -495 5 -300 -54 -619 -71 -773 -42
-314 60 -543 295 -611 628 -21 100 -21 321 0 498 23 204 94 570 113 593 4 4
20 -64 35 -150 16 -87 49 -237 74 -333 33 -130 47 -202 51 -281 8 -143 24
-161 106 -119 37 19 41 20 50 4 35 -60 70 -68 122 -28 l34 26 23 -21 c32 -30
55 -26 97 15 l37 36 28 -20 c69 -49 104 -32 125 62 11 49 15 56 41 61 49 11
54 40 24 143 l-27 90 33 193 c29 172 32 216 32 384 0 177 -2 196 -27 276 -29
94 -75 205 -82 198 -2 -3 3 -81 11 -174 9 -94 16 -253 17 -355 2 -165 -1 -202
-27 -343 l-29 -159 27 -78 c14 -42 26 -90 26 -105 0 -26 -2 -27 -35 -22 l-35
6 0 -45 c0 -47 -14 -84 -31 -84 -5 0 -30 19 -54 41 -39 36 -45 39 -51 23 -15
-50 -35 -84 -49 -84 -8 0 -33 16 -55 36 -22 20 -42 35 -44 33 -1 -2 -8 -18
-15 -36 -7 -17 -21 -39 -32 -49 -18 -16 -20 -16 -38 0 -11 10 -25 31 -31 47
-15 35 -20 36 -50 4 -46 -49 -61 -27 -58 85 2 52 -7 94 -41 205 -49 164 -95
384 -112 544 -26 247 4 571 80 857 43 158 40 154 93 127 111 -56 208 -103 208
-99 0 2 -55 46 -122 98 -235 182 -404 341 -646 610 l-24 27 47 58 c147 180
134 410 -31 562 l-61 56 12 35 c7 19 28 67 47 105 25 50 38 95 47 156 40 295
142 555 303 767 27 35 47 66 45 68 -2 3 -28 -7 -58 -20 -29 -14 -86 -33 -126
-43 -65 -15 -89 -15 -221 -5 -241 20 -458 52 -602 88 l-135 33 -62 65 c-76 80
-155 195 -201 295 -32 70 -92 234 -92 253 0 4 19 5 43 3 23 -3 110 -12 192
-21 484 -51 958 -152 1422 -305 l93 -31 -20 -39 c-11 -21 -17 -39 -12 -39 4 0
44 15 88 34 178 75 481 171 664 210 299 64 578 61 875 -9 108 -25 295 -83 295
-91 0 -2 -7 -21 -15 -41 -15 -36 -20 -99 -9 -127 4 -11 32 26 89 118 212 341
531 795 714 1016 73 88 242 261 358 367 94 86 284 242 295 243 4 0 10 -10 13
-22z m554 -1630 c325 -195 664 -419 935 -616 208 -151 426 -320 426 -330 0 -4
-48 -38 -107 -77 -242 -158 -556 -398 -793 -605 -184 -161 -409 -375 -402
-382 4 -4 81 -38 172 -76 316 -134 774 -351 893 -422 l28 -17 -148 -90 c-81
-50 -278 -170 -438 -268 -159 -98 -338 -207 -397 -243 -60 -35 -108 -67 -108
-71 0 -3 60 -36 134 -73 274 -139 597 -330 620 -367 3 -4 -122 -85 -277 -181
-155 -95 -351 -218 -435 -273 -146 -95 -196 -116 -219 -93 -4 3 3 27 15 51 12
25 20 45 18 45 -2 0 -29 -11 -60 -25 -31 -14 -61 -25 -66 -25 -5 0 2 30 15 67
13 38 22 69 20 71 -1 1 -39 -11 -84 -27 -91 -33 -89 -34 -70 49 8 39 28 63
142 180 73 74 145 149 161 167 l28 32 -128 64 c-135 67 -276 126 -529 222 -82
31 -152 58 -154 60 -4 4 112 138 383 443 100 112 182 210 184 217 4 16 -433
162 -768 256 -124 35 -227 64 -229 66 -2 1 8 91 23 200 67 508 91 858 68 998
l-10 60 227 230 c124 127 334 339 466 473 132 133 264 270 294 302 30 33 61
60 69 60 8 0 53 -23 101 -52z m-804 -2488 c220 -73 406 -135 413 -139 8 -5
-68 -97 -225 -275 -131 -147 -246 -278 -256 -290 -18 -23 -18 -24 12 -83 l30
-60 143 -53 c294 -108 497 -191 537 -220 l40 -30 -147 -138 c-285 -268 -417
-391 -419 -389 -1 1 -11 59 -23 127 -50 305 -86 419 -296 941 -148 369 -198
510 -219 620 -19 100 -19 133 -2 126 6 -2 192 -64 412 -137z m-3148 -2984
c117 -69 251 -96 488 -96 l130 -1 -29 -22 c-262 -200 -546 -354 -781 -422 -89
-26 -145 -32 -145 -16 0 11 85 76 177 135 74 48 99 76 89 102 -16 42 -116 -13
-253 -140 -44 -42 -84 -76 -87 -76 -30 0 45 98 128 166 30 25 57 52 60 61 9
23 -17 47 -42 39 -31 -10 -129 -112 -160 -167 -15 -27 -30 -49 -34 -49 -49 0
182 334 313 452 41 37 77 68 81 68 4 0 33 -15 65 -34z m2943 -93 c77 -217 118
-444 106 -581 -7 -76 -20 -122 -34 -122 -4 0 -13 61 -18 135 -10 122 -14 140
-45 202 -31 61 -37 68 -64 68 -45 0 -43 -26 10 -117 60 -103 92 -245 66 -287
-16 -26 -35 3 -95 142 -65 152 -118 230 -159 235 -22 3 -27 -1 -27 -18 0 -28
32 -90 95 -180 29 -41 67 -102 86 -134 l33 -59 -30 7 c-38 10 -85 46 -158 121
-119 122 -301 366 -362 486 -28 57 -24 69 27 69 100 0 350 67 449 120 30 16
60 29 66 30 7 0 31 -53 54 -117z"/>
<path d="M4297 6526 c-146 -41 -235 -183 -225 -360 5 -97 29 -156 87 -219 62
-67 126 -92 236 -92 76 0 99 5 146 27 128 59 190 153 197 297 3 71 0 97 -18
146 -29 78 -114 164 -185 189 -68 23 -178 29 -238 12z m102 -113 c33 -24 71
-98 71 -137 0 -43 -35 -109 -69 -129 -46 -27 -123 -23 -161 9 -42 36 -60 74
-60 131 0 70 29 116 90 145 25 13 101 1 129 -19z"/>
<path d="M2745 6484 c-34 -8 -98 -58 -131 -101 -104 -137 -102 -333 5 -443 60
-62 109 -78 186 -61 202 45 281 266 173 481 -44 86 -90 123 -160 126 -29 1
-62 0 -73 -2z m143 -110 c27 -18 52 -75 52 -116 0 -43 -26 -91 -59 -111 -37
-22 -59 -21 -98 3 -64 39 -66 143 -4 209 33 35 73 41 109 15z"/>
<path d="M4750 5857 c-113 -26 -188 -87 -237 -192 -25 -53 -28 -71 -28 -155 1
-107 19 -161 79 -235 123 -149 400 -161 539 -22 114 114 131 342 34 469 -87
113 -243 168 -387 135z"/>
<path d="M3183 5843 c-15 -3 -23 -12 -23 -24 0 -25 87 -119 110 -119 24 0 120
95 120 118 0 14 -9 21 -31 26 -34 6 -140 6 -176 -1z"/>
<path d="M2972 5548 c-16 -16 -15 -53 3 -87 17 -34 97 -71 153 -71 22 0 68 9
103 20 71 21 84 20 206 -24 85 -31 152 -33 209 -7 57 26 111 76 124 116 22 66
-11 73 -73 16 -91 -83 -139 -89 -295 -35 -114 40 -119 40 -235 -1 -59 -22 -94
-10 -139 47 -34 42 -38 44 -56 26z"/>
<path d="M4411 3965 c-60 -69 -117 -203 -150 -355 -26 -120 -67 -407 -81 -567
-6 -67 -20 -173 -30 -235 -33 -189 -28 -206 63 -222 20 -4 37 -11 37 -16 0 -5
14 -25 31 -45 34 -38 66 -44 108 -21 23 13 27 11 61 -25 20 -22 44 -39 52 -39
8 0 32 12 54 26 37 25 39 26 67 9 24 -14 33 -15 58 -5 16 7 34 21 40 31 8 16
17 18 48 13 32 -5 43 -2 61 16 20 20 22 30 18 89 l-4 66 81 110 c201 272 294
473 334 722 22 132 36 333 23 318 -5 -6 -19 -58 -31 -117 -61 -299 -187 -587
-397 -905 l-74 -111 11 -57 c13 -72 2 -88 -42 -62 -41 23 -43 22 -58 -18 -16
-46 -42 -45 -77 1 l-27 35 -21 -35 c-35 -63 -69 -58 -108 17 l-20 39 -33 -36
c-18 -20 -40 -36 -48 -36 -24 0 -54 44 -61 90 l-6 40 -31 -16 c-63 -32 -71 -4
-40 136 11 47 27 159 36 250 34 347 113 713 200 933 12 28 -11 19 -44 -18z"/>
</g>
</svg>
